<?xml version="1.0" standalone="no"?>
<!DOCTYPE svg PUBLIC "-//W3C//DTD SVG 20010904//EN"
 "http://www.w3.org/TR/2001/REC-SVG-20010904/DTD/svg10.dtd">
<svg version="1.0" xmlns="http://www.w3.org/2000/svg"
 width="692.000000pt" height="692.000000pt" viewBox="0 0 692.000000 692.000000"
 preserveAspectRatio="xMidYMid meet">

<g transform="translate(0.000000,692.000000) scale(0.100000,-0.100000)"
fill="#ffffff" stroke="none">
<path d="M1336 6629 c-379 -50 -707 -286 -877 -633 -27 -56 -59 -139 -71 -186
l-23 -85 0 -2250 0 -2250 28 -89 c61 -195 158 -357 297 -496 91 -91 220 -183
315 -226 33 -14 79 -37 104 -52 25 -15 54 -28 66 -29 11 -2 47 -8 80 -13 37
-6 866 -10 2188 -10 2306 0 2179 -3 2342 52 287 97 547 323 684 597 45 89 88
238 100 343 8 67 11 757 11 2195 0 2214 1 2165 -43 2303 -8 25 -20 65 -28 90
-7 25 -16 49 -21 54 -4 6 -8 19 -8 30 0 32 -124 208 -213 303 -171 180 -342
279 -592 340 -65 16 -223 17 -2170 19 -1187 1 -2130 -2 -2169 -7z m227 -250
c38 -19 57 -51 57 -97 0 -59 -43 -102 -102 -102 -54 0 -108 51 -108 102 1 84
80 134 153 97z m3620 -30 c12 -7 25 -17 29 -23 4 -6 8 -75 8 -152 0 -129 -2
-146 -25 -198 -24 -54 -25 -66 -25 -246 l0 -190 -80 0 -80 0 0 200 c0 176 2
205 20 250 17 42 20 74 20 190 0 138 0 139 26 159 30 23 74 27 107 10z m-2860
-5 l37 -7 0 -398 0 -399 -80 0 -80 0 0 399 0 400 23 4 c36 7 60 7 100 1z m500
0 l37 -7 0 -398 0 -399 -82 0 -83 0 3 399 2 400 28 4 c46 7 56 7 95 1z m1399
-7 c10 -11 13 -93 12 -403 l-1 -389 -81 -3 -82 -3 0 400 0 400 23 4 c50 10
116 6 129 -6z m482 3 l26 -10 0 -395 0 -395 -85 0 -85 0 2 397 3 397 25 7 c38
11 86 10 114 -1z m-1138 -55 c47 -19 97 -68 124 -122 61 -120 10 -273 -114
-335 l-29 -15 2 -124 c1 -68 -1 -132 -4 -141 -6 -15 -20 -18 -81 -18 l-74 0
-1 118 c-1 64 0 129 1 143 1 21 -6 29 -40 44 -100 45 -159 181 -126 288 45
147 200 220 342 162z m2289 -31 c52 -34 57 -120 9 -165 -19 -18 -37 -24 -71
-24 -38 0 -49 5 -74 33 -85 95 28 227 136 156z m-3870 -39 c32 -31 32 -58 -1
-84 -34 -27 -50 -26 -79 4 -30 29 -31 45 -4 79 26 33 53 33 84 1z m-685 -40
c49 -53 17 -125 -56 -125 -44 0 -74 30 -74 72 0 70 82 104 130 53z m463 -36
c15 -11 56 -54 92 -95 l65 -75 0 -214 0 -213 -80 -4 -80 -3 0 197 0 197 -50
57 c-66 76 -68 128 -5 162 27 15 29 15 58 -9z m-914 -205 c36 -25 52 -74 40
-118 -12 -45 -50 -71 -102 -71 -32 0 -45 7 -69 34 -27 30 -30 39 -25 80 4 33
12 52 32 68 31 28 90 31 124 7z m546 -22 c50 -26 107 -84 134 -139 27 -54 28
-151 2 -208 l-18 -40 39 3 c35 4 43 0 88 -45 56 -57 62 -82 25 -118 -41 -42
-75 -34 -134 32 -28 31 -51 63 -51 69 0 8 -23 0 -62 -19 -115 -60 -251 -38
-330 52 -123 139 -73 353 98 421 61 25 152 22 209 -8z m4329 8 c109 -41 184
-157 173 -268 -17 -191 -216 -298 -389 -208 l-52 27 -20 -28 c-66 -94 -133
-126 -176 -83 -32 32 -26 74 18 118 51 51 88 69 111 55 16 -10 16 -7 -2 46
-39 114 -4 233 87 302 82 62 156 74 250 39z m-4764 -545 l207 -205 161 0 160
0 -36 -80 -37 -80 -157 0 -158 0 -222 216 c-123 118 -229 227 -236 240 -29 55
11 114 77 114 30 0 53 -19 241 -205z m5305 180 c38 -37 33 -79 -13 -124 -21
-20 -89 -86 -152 -147 -63 -60 -154 -147 -202 -192 l-87 -82 -148 0 -149 0
-41 80 -41 80 155 0 155 0 213 205 c198 190 216 205 250 205 25 0 43 -8 60
-25z m-1405 -293 c193 -70 331 -208 384 -386 24 -78 25 -95 29 -446 5 -411 0
-485 -28 -506 -24 -18 -109 -18 -124 0 -8 9 -12 144 -14 442 -4 483 -3 479
-80 594 -69 103 -145 140 -192 94 -24 -25 -18 -47 33 -111 95 -118 87 19 90
-1388 2 -1211 2 -1242 -17 -1305 -36 -117 -136 -226 -251 -273 l-55 -22 -1274
-2 c-1172 -3 -1276 -4 -1293 -19 -26 -24 -22 -56 10 -86 60 -56 -22 -53 1317
-56 1215 -3 1241 -2 1305 17 188 58 332 209 386 406 14 52 17 152 21 775 3
463 9 719 15 728 17 19 102 15 129 -7 l24 -19 -2 -749 c-3 -704 -4 -754 -22
-825 -57 -224 -213 -393 -433 -471 l-63 -22 -1245 -3 c-1383 -3 -1321 -6
-1458 63 -178 91 -312 261 -363 465 -19 73 -19 120 -17 1395 l3 1320 24 58
c53 132 157 244 286 308 122 60 68 58 1500 56 l1310 -2 65 -23z m-4072 -251
c22 -16 43 -35 47 -41 4 -6 54 -51 111 -100 l104 -90 180 0 180 0 0 -79 c0
-95 18 -89 -238 -85 l-184 3 -85 73 c-47 40 -120 102 -162 137 -95 80 -100 87
-101 133 0 28 6 41 26 57 37 29 74 26 122 -8z m5465 9 c51 -40 41 -102 -25
-149 -18 -14 -76 -61 -128 -106 -52 -45 -116 -98 -143 -118 l-47 -36 -195 -1
-195 0 0 85 0 85 171 0 172 0 44 36 c25 20 92 79 150 130 115 103 145 114 196
74z m-5458 -531 c20 -18 43 -45 51 -60 l15 -29 274 0 275 0 0 -85 0 -85 -282
0 -282 0 -47 40 c-27 23 -65 43 -89 49 -51 11 -58 17 -74 66 -16 47 -10 78 21
110 38 37 92 34 138 -6z m5464 4 c17 -16 31 -37 32 -48 6 -75 -17 -112 -81
-126 -24 -6 -65 -27 -93 -49 l-50 -40 -273 0 -274 0 0 85 0 85 270 0 270 0 20
39 c42 83 122 107 179 54z m-515 -414 c59 -16 140 -102 160 -169 20 -68 20
-95 0 -159 -33 -99 -133 -171 -239 -171 -135 0 -254 115 -255 246 0 108 47
186 141 233 67 34 124 39 193 20z m522 -30 c67 -62 20 -169 -73 -169 -80 0
-126 103 -74 164 36 41 106 44 147 5z m-5134 -89 l278 0 0 -80 0 -80 -365 0
-366 0 -24 25 c-43 42 -26 127 28 139 12 2 55 3 96 0 41 -2 199 -4 353 -4z
m209 -367 c50 -19 122 -99 137 -151 18 -58 15 -134 -7 -184 -23 -53 -83 -111
-135 -133 -50 -21 -143 -21 -193 0 -87 36 -163 146 -163 236 0 188 181 304
361 232z m-525 -157 c38 -38 44 -77 19 -125 -45 -89 -195 -46 -195 56 0 50 54
103 105 103 29 0 45 -8 71 -34z m5141 -61 c45 -32 37 -121 -13 -144 -16 -7
-97 -11 -224 -11 l-200 0 0 85 0 85 208 0 c168 0 212 -3 229 -15z m277 -57
c23 -33 20 -74 -6 -92 -31 -22 -64 -20 -88 4 -41 41 -13 110 45 110 24 0 39
-7 49 -22z m-4824 -453 l0 -85 -267 0 -268 -1 -30 -40 c-59 -81 -71 -89 -119
-89 -59 0 -96 40 -96 104 0 51 22 79 77 97 21 6 62 32 91 56 l54 43 279 0 279
0 0 -85z m4718 35 c32 -28 66 -50 78 -50 32 0 80 -44 88 -80 7 -38 -15 -94
-42 -109 -27 -15 -93 -13 -112 2 -9 7 -27 28 -40 47 -53 76 -26 70 -317 70
l-263 0 0 85 0 85 276 0 276 0 56 -50z m-4718 -425 l0 -85 -185 0 -185 0 -105
-92 c-164 -144 -184 -158 -220 -158 -59 0 -103 76 -71 125 15 22 268 239 326
278 21 15 54 17 232 17 l208 0 0 -85z m4676 -42 c202 -174 204 -176 204 -213
0 -43 -39 -80 -83 -80 -30 0 -53 16 -165 115 -72 63 -133 119 -137 125 -4 6
-77 10 -196 10 l-189 0 0 85 0 85 209 0 209 0 148 -127z m-4670 -310 c3 -16
12 -52 19 -80 l13 -53 -151 0 -151 0 -196 -195 c-180 -179 -199 -195 -231
-195 -61 0 -106 71 -77 122 7 13 108 115 225 226 l212 202 165 0 166 0 6 -27z
m4652 -190 c197 -193 223 -222 222 -249 0 -42 -42 -84 -83 -84 -25 0 -50 20
-146 113 -63 61 -118 114 -121 117 -3 3 -42 40 -86 83 l-82 77 -141 0 c-92 0
-141 4 -141 11 0 5 4 29 9 52 6 23 12 54 16 70 l5 27 163 0 163 0 222 -217z
m-4650 -322 c144 -92 175 -276 68 -398 -129 -147 -357 -115 -441 62 -69 146 7
315 165 366 14 5 55 7 92 5 55 -3 76 -9 116 -35z m4327 15 c62 -28 127 -100
145 -158 54 -176 -70 -348 -249 -348 -177 0 -306 166 -257 331 46 159 218 242
361 175z m-4888 -121 c26 -17 47 -77 39 -111 -18 -70 -107 -97 -164 -49 -101
84 14 231 125 160z m1063 -257 c0 -124 -4 -165 -20 -216 -17 -53 -20 -92 -20
-238 0 -197 1 -194 -84 -194 -82 0 -84 7 -78 226 l5 188 -33 -37 c-39 -45 -89
-51 -127 -15 -34 32 -32 99 3 127 49 38 116 20 136 -36 l12 -34 23 52 c20 46
23 68 23 190 l0 139 80 0 80 0 0 -152z m1630 32 c0 -102 2 -120 16 -120 8 0
39 -24 69 -54 42 -42 57 -66 70 -111 72 -246 -227 -421 -413 -242 -83 79 -101
196 -47 295 27 50 96 112 124 112 17 0 24 47 17 110 -4 33 -4 76 0 95 l6 35
79 0 79 0 0 -120z m1620 -34 l0 -153 41 -44 c22 -24 38 -39 34 -32 -3 6 9 28
26 47 41 48 86 50 123 5 14 -17 26 -42 26 -57 0 -30 -45 -82 -72 -82 -15 0
-17 -5 -12 -25 3 -14 3 -36 0 -50 -7 -29 -59 -59 -90 -51 -21 5 -153 142 -210
218 -15 21 -28 50 -29 65 0 16 1 92 2 171 l1 142 80 0 80 0 0 -154z m-2810
-255 c0 -426 7 -391 -80 -391 -87 0 -80 -35 -80 391 l0 379 80 0 80 0 0 -379z
m1875 9 c0 -201 -3 -373 -8 -382 -6 -14 -20 -18 -67 -18 -99 0 -90 -37 -90
384 0 205 3 376 7 380 4 4 41 5 82 4 l76 -3 0 -365z m493 -4 c2 -264 -1 -373
-9 -382 -14 -17 -111 -19 -140 -4 -18 10 -19 25 -19 386 l0 375 83 -3 82 -3 3
-369z m-1868 -10 c0 -420 7 -386 -80 -386 -87 0 -80 -34 -80 386 l0 374 80 0
80 0 0 -374z m3355 330 c35 -15 65 -59 65 -96 0 -57 -49 -100 -113 -100 -79 1
-126 101 -76 164 36 45 70 54 124 32z m-3077 -22 c42 -29 17 -104 -35 -104
-22 0 -53 38 -53 64 0 24 32 56 55 56 6 0 21 -7 33 -16z m-2122 -250 c24 -6
54 -53 54 -84 0 -12 -9 -33 -20 -47 -11 -14 -20 -33 -20 -42 -1 -34 -48 -71
-92 -71 -40 0 -86 36 -97 75 -13 48 -8 60 53 122 51 53 72 61 122 47z m4824
-129 c98 -51 65 -195 -45 -195 -87 0 -136 98 -84 164 36 46 80 56 129 31z
m-4461 -171 c46 -33 60 -111 27 -153 -6 -8 -26 -20 -44 -28 -85 -35 -173 59
-131 140 28 55 100 74 148 41z m4072 -14 c49 -27 61 -117 20 -154 -24 -22 -79
-30 -113 -17 -73 28 -72 147 2 174 25 9 70 8 91 -3z"/>
<path d="M3425 6128 c-76 -45 -49 -158 38 -158 71 0 114 85 70 139 -21 26 -80
36 -108 19z"/>
<path d="M1219 5742 c-74 -66 -14 -183 85 -165 75 15 102 109 47 164 -40 39
-89 40 -132 1z"/>
<path d="M5588 5755 c-55 -31 -64 -94 -22 -144 21 -25 33 -31 66 -31 50 0 74
13 94 51 42 81 -57 170 -138 124z"/>
<path d="M3890 4917 c-153 -52 -260 -153 -314 -295 -19 -53 -21 -79 -24 -357
-4 -321 1 -369 45 -462 32 -68 90 -132 282 -305 227 -206 310 -288 332 -330
17 -33 19 -59 19 -229 0 -179 -1 -194 -22 -231 -30 -53 -79 -82 -142 -82 -62
-1 -100 17 -140 67 -30 37 -31 43 -36 156 -3 79 -10 123 -19 135 -11 13 -35
16 -145 16 -128 0 -133 -1 -156 -24 -22 -24 -22 -29 -18 -175 l4 -150 42 -84
c85 -172 245 -267 452 -267 266 0 476 167 510 405 12 89 13 365 1 471 -13 105
-52 202 -108 264 -25 27 -115 114 -201 192 -236 214 -322 299 -343 340 -17 34
-19 60 -19 270 0 257 7 291 65 336 66 52 145 53 206 2 58 -47 69 -81 69 -218
0 -170 -2 -168 172 -164 178 4 171 -5 164 202 -5 177 -23 252 -80 336 -59 87
-166 160 -281 190 -81 22 -238 18 -315 -9z"/>
<path d="M2473 4920 c-30 -12 -39 -34 -47 -110 -4 -36 -25 -200 -46 -365 -22
-165 -65 -496 -95 -735 -30 -239 -81 -639 -113 -888 l-57 -454 25 -20 c23 -19
34 -20 160 -14 111 5 137 10 148 24 16 22 17 25 37 227 41 407 44 429 62 442
20 15 289 18 312 4 14 -9 43 -210 74 -521 20 -187 13 -181 185 -174 70 2 135
7 145 10 40 12 39 30 -18 471 -128 988 -187 1436 -230 1743 -43 309 -46 326
-71 348 -24 21 -31 22 -237 21 -117 0 -222 -4 -234 -9z m269 -651 c15 -134 43
-375 63 -534 19 -160 35 -305 35 -323 l0 -32 -140 0 c-135 0 -140 1 -140 21 0
33 90 822 111 973 10 77 19 142 19 144 0 2 6 2 12 0 8 -3 22 -86 40 -249z"/>
<path d="M5600 3895 c-53 -56 -15 -145 62 -145 80 0 120 89 65 148 -30 32 -95
31 -127 -3z"/>
<path d="M1204 3440 c-84 -35 -62 -160 29 -163 106 -3 126 150 22 168 -17 2
-40 0 -51 -5z"/>
<path d="M1217 1452 c-20 -20 -27 -39 -27 -66 0 -50 15 -75 54 -91 40 -17 73
-10 109 23 38 36 38 98 1 136 -38 37 -100 37 -137 -2z"/>
<path d="M5569 1451 c-71 -71 0 -185 98 -159 35 9 73 54 73 88 0 29 -26 77
-49 90 -39 20 -91 12 -122 -19z"/>
<path d="M3405 985 c-61 -60 0 -161 80 -135 96 32 80 160 -20 160 -25 0 -44
-8 -60 -25z"/>
<path d="M3578 113 c7 -3 16 -2 19 1 4 3 -2 6 -13 5 -11 0 -14 -3 -6 -6z"/>
</g>
</svg>
